<svg xmlns="http://www.w3.org/2000/svg" viewBox="0 0 24 24"><g id="SVGRepo_iconCarrier"><title>store_2_line</title><g id="页面-1" fill="none" fill-rule="evenodd" stroke="none" stroke-width="1"><g id="Building" transform="translate(-432 -96)"><g id="store_2_line" transform="translate(432 96)"><path id="MingCute" fill-rule="nonzero" d="M24 0v24H0V0zM12.593 23.258l-.011.002-.071.035-.02.004-.014-.004-.071-.035q-.016-.005-.024.005l-.004.01-.017.428.005.02.01.013.104.074.015.004.012-.004.104-.074.012-.016.004-.017-.017-.427q-.004-.016-.017-.018m.265-.113-.013.002-.185.093-.01.01-.003.011.018.43.005.012.008.007.201.093q.019.005.029-.008l.004-.014-.034-.614q-.005-.018-.02-.022m-.715.002a.02.02 0 0 0-.027.006l-.006.014-.034.614q.001.018.017.024l.015-.002.201-.093.01-.008.004-.011.017-.43-.003-.012-.01-.01z"/><path id="形状" fill="#ffd900" d="M2 5a3 3 0 0 1 3-3h13a3 3 0 0 1 3 3v13a3 3 0 0 1-3 3H5a3 3 0 0 1-3-3zm17 0v1a2 2 0 1 1-4 0 1 1 0 1 0-2 0v.5a1.5 1.5 0 0 1-3 0V6a1 1 0 0 0-2 0 2 2 0 1 1-4 0V5a1 1 0 0 1 1-1h13a1 1 0 0 1 1 1m-2 5c-1.12 0-2.133-.46-2.86-1.203A3.5 3.5 0 0 1 11.5 10a3.5 3.5 0 0 1-2.64-1.203A4 4 0 0 1 6 10a4 4 0 0 1-2-.535V18a1 1 0 0 0 1 1h3v-4a3 3 0 0 1 3-3h1a3 3 0 0 1 3 3v4h3a1 1 0 0 0 1-1V9.465A4 4 0 0 1 17 10m-4 9v-4a1 1 0 0 0-1-1h-1a1 1 0 0 0-1 1v4z"/></g></g></g></g></svg>